# xmcd
#
# Track frame offsets:
#	150
#	21524
#	40881
#	63911
#	82443
#	102512
#	119367
#	142432
#	164330
#	185275
#	207717
#
# Disc length: 3029 seconds
#
# Revision: 2
# Processed by: cddbd v1.5.1PL2 Copyright (c) Steve Scherf et al.
# Submitted via: EasyCDDAExtractor 8.2.1.1
#
DISCID=af0bd30b
DTITLE=TONY THOMPSON - Sexsational
DYEAR=1995
DGENRE=R&B
TTITLE0=I Know
TTITLE1=What's Goin' On
TTITLE2=I Wanna Love Like That
TTITLE3=Sweat
TTITLE4=Handle Our Business
TTITLE5=My Cherie Amour
TTITLE6=Come Over
TTITLE7=Dance With Me
TTITLE8=Goodbye Eyes
TTITLE9=Slave
TTITLE10=Break It Down
EXTD=
EXTT0=
EXTT1=
EXTT2=
EXTT3=
EXTT4=
EXTT5=
EXTT6=
EXTT7=
EXTT8=
EXTT9=
EXTT10=
PLAYORDER=
